<?xml version="1.0" encoding="UTF-8"?>
<!DOCTYPE svg PUBLIC "-//W3C//DTD SVG 1.1//EN" "http://www.w3.org/Graphics/SVG/1.1/DTD/svg11.dtd">
<svg version="1.1" id="Layer_1" xmlns="http://www.w3.org/2000/svg" xmlns:xlink="http://www.w3.org/1999/xlink" x="0px" y="0px" width="32px" height="32px" viewBox="0 0 32 32" enable-background="new 0 0 32 32" xml:space="preserve">
  <g id="icon">
    <path d="M26,2H6c-2.2091,0,-4,1.7909,-4,4v20c0,2.2091,1.7909,4,4,4h20c2.2091,0,4,-1.7909,4,-4V6C30,3.7909,28.2091,2,26,2zM23.6683,20.9799c0.2192,0.2192,0.2192,0.5747,0,0.7939l-1.8945,1.8945c-0.2192,0.2192,-0.5747,0.2192,-0.7939,0L16,18.6884l-4.9799,4.9799c-0.2192,0.2192,-0.5747,0.2192,-0.7939,0l-1.8945,-1.8945c-0.2192,-0.2192,-0.2192,-0.5747,0,-0.7939L13.3116,16l-4.9799,-4.9799c-0.2192,-0.2192,-0.2192,-0.5747,0,-0.7939l1.8945,-1.8945c0.2192,-0.2192,0.5747,-0.2192,0.7939,0L16,13.3116l4.9799,-4.9799c0.2192,-0.2192,0.5747,-0.2192,0.7939,0l1.8945,1.8945c0.2192,0.2192,0.2192,0.5747,0,0.7939L18.6884,16L23.6683,20.9799z" fill="#CD4C32"/>
    <path d="M20.9799,8.3317L16,13.3116l-4.9799,-4.9799c-0.2192,-0.2192,-0.5747,-0.2192,-0.7939,0l-1.8945,1.8945c-0.2192,0.2192,-0.2192,0.5747,0,0.7939L13.3116,16l-4.9799,4.9799c-0.2192,0.2192,-0.2192,0.5747,0,0.7939l1.8945,1.8945c0.2192,0.2192,0.5747,0.2192,0.7939,0L16,18.6884l4.9799,4.9799c0.2192,0.2192,0.5747,0.2192,0.7939,0l1.8945,-1.8945c0.2192,-0.2192,0.2192,-0.5747,0,-0.7939L18.6884,16l4.9799,-4.9799c0.2192,-0.2192,0.2192,-0.5747,0,-0.7939l-1.8945,-1.8945C21.5546,8.1124,21.1991,8.1124,20.9799,8.3317z" fill-rule="evenodd" fill="#FFFFFF"/>
  </g>
</svg>
