<?xml version="1.0" encoding="UTF-8"?>
<!DOCTYPE svg PUBLIC "-//W3C//DTD SVG 1.1//EN" "http://www.w3.org/Graphics/SVG/1.1/DTD/svg11.dtd">
<svg version="1.1" id="Layer_1" xmlns="http://www.w3.org/2000/svg" xmlns:xlink="http://www.w3.org/1999/xlink" x="0px" y="0px" width="32px" height="32px" viewBox="0 0 32 32" enable-background="new 0 0 32 32" xml:space="preserve">
  <g id="icon">
    <path d="M27,30.5H5c-0.2761,0,-0.5,-0.2239,-0.5,-0.5V4.5h23v25.5C27.5,30.2761,27.2761,30.5,27,30.5z" fill="#FFFFFF" stroke="#797979" stroke-width="1" stroke-miterlimit="1"/>
    <path d="M28,5H4V2.4c0,-0.7732,0.6268,-1.4,1.4,-1.4h21.2c0.7732,0,1.4,0.6268,1.4,1.4V5z" fill="#3E79B4"/>
    <path d="M8,11.5h3M8,8.5h3M8,14.5h3M8,17.5h3M8,20.5h3M8,23.5h3M8,26.5h3" fill="none" stroke="#797979" stroke-width="1" stroke-linecap="round" stroke-miterlimit="1"/>
    <path d="M13.5,11.5h10.5M13.5,8.5h10.5M13.5,14.5h10.5M13.5,17.5h10.5M13.5,20.5h10.5M13.5,23.5h10.5M13.5,26.5h10.5" fill="none" stroke="#B4B4B5" stroke-width="1" stroke-linecap="round" stroke-miterlimit="1"/>
  </g>
</svg>
