<?xml version="1.0" encoding="UTF-8"?>
<!DOCTYPE svg PUBLIC "-//W3C//DTD SVG 1.1//EN" "http://www.w3.org/Graphics/SVG/1.1/DTD/svg11.dtd">
<svg version="1.1" id="Layer_1" xmlns="http://www.w3.org/2000/svg" xmlns:xlink="http://www.w3.org/1999/xlink" x="0px" y="0px" width="24px" height="24px" viewBox="0 0 24 24" enable-background="new 0 0 24 24" xml:space="preserve">
  <g id="icon">
    <path d="M20.8,22H3.2c-0.66,0,-1.2,-0.54,-1.2,-1.2V3.2c0,-0.66,0.54,-1.2,1.2,-1.2h17.6c0.66,0,1.2,0.54,1.2,1.2v17.6C22,21.46,21.46,22,20.8,22z" fill="#ED5564"/>
    <path d="M20.8,2h-4.3932l-5.9322,20H20.8c0.66,0,1.2,-0.54,1.2,-1.2V3.2C22,2.54,21.46,2,20.8,2z" fill="#DB4453"/>
    <path d="M13.4733,12l3.3887,-3.3887c0.1621,-0.1621,0.1621,-0.4273,0,-0.5893l-0.884,-0.884c-0.1621,-0.1621,-0.4273,-0.1621,-0.5893,0L12,10.5267L8.6113,7.138c-0.1621,-0.1621,-0.4273,-0.1621,-0.5893,0l-0.884,0.884c-0.1621,0.1621,-0.1621,0.4273,0,0.5893L10.5267,12L7.138,15.3887c-0.1621,0.1621,-0.1621,0.4273,0,0.5893l0.884,0.884c0.1621,0.1621,0.4273,0.1621,0.5893,0L12,13.4733l3.3887,3.3887c0.1621,0.1621,0.4273,0.1621,0.5893,0l0.884,-0.884c0.1621,-0.1621,0.1621,-0.4273,0,-0.5893L13.4733,12z" fill="#FFFFFF"/>
  </g>
</svg>
