<?xml version="1.0" encoding="UTF-8"?>
<!DOCTYPE svg PUBLIC "-//W3C//DTD SVG 1.1//EN" "http://www.w3.org/Graphics/SVG/1.1/DTD/svg11.dtd">
<svg version="1.1" id="Layer_1" xmlns="http://www.w3.org/2000/svg" xmlns:xlink="http://www.w3.org/1999/xlink" x="0px" y="0px" width="32px" height="32px" viewBox="0 0 32 32" enable-background="new 0 0 32 32" xml:space="preserve">
  <g id="main">
    <clipPath id="clip_mask">
      <path d="M21.6036,30.1604c-0.3894,-0.0336,-0.7793,-0.0723,-1.1544,-0.1162c-2.8838,-0.3378,-3.6048,-0.7902,-3.8756,-1.4576c-0.1819,-0.4481,-0.076,-0.9489,0.2751,-1.3217c0.1537,-0.1834,0.318,-0.3675,0.4915,-0.5616c0.9239,-1.0346,1.9711,-2.2072,1.9711,-3.9152c0,-1.9407,1.2569,-3.6199,3.0711,-4.4047c0.2461,-1.0761,1.2284,-1.8828,2.3999,-1.8828c1.205,0,2.2096,0.8534,2.4191,1.9755c1.7049,0.8192,2.8694,2.4443,2.8694,4.312c0,1.0109,0.9135,2.5524,1.9291,3.7507V0H0v32h22.3795C21.92,31.5127,21.6362,30.877,21.6036,30.1604z" fill-rule="evenodd"/>
    </clipPath>
    <g id="icon" clip-path="url(#clip_mask)">
      <g id="transformed_icon" transform="translate(-1 -1)">
        <path d="M24.7,30.5H7.3c-0.442,0,-0.8,-0.358,-0.8,-0.8V5.3c0,-0.442,0.358,-0.8,0.8,-0.8h17.4c0.442,0,0.8,0.358,0.8,0.8v24.4C25.5,30.142,25.142,30.5,24.7,30.5z" fill="#FFFFFF" stroke="#797979" stroke-width="1" stroke-linecap="round" stroke-miterlimit="1" stroke-linejoin="round"/>
        <rect x="8" y="26" width="16" height="3" fill="#CD4C32"/>
        <path d="M20,4.3h-8V2c0,-0.552,0.448,-1,1,-1h6c0.552,0,1,0.448,1,1V4.3z" fill="#797979"/>
      </g>
    </g>
    <g id="overlay">
      <path d="M31.8966,27.9902c-1.0459,-1.0546,-2.8112,-3.3401,-2.8112,-5.1027c0,-1.6656,-1.1865,-3.0855,-2.8518,-3.6345c0.0143,-0.0791,0.0232,-0.16,0.0232,-0.243c0,-0.7787,-0.6536,-1.41,-1.4599,-1.41s-1.4599,0.6313,-1.4599,1.41c0,0.0645,0.006,0.1275,0.0147,0.1898c-1.756,0.505,-3.0259,1.9647,-3.0259,3.6878c0,2.4675,-1.7419,3.9716,-2.7194,5.1469c-0.9863,0.9584,5.1583,1.3829,7.1448,1.3829C26.7377,29.4173,32.9425,29.0448,31.8966,27.9902z" fill-rule="evenodd" fill="#EAB765"/>
      <path d="M27.0693,30.1207c0,1.1979,-1.0445,1.9787,-2.2539,1.9787c-1.2094,0,-2.2219,-0.7808,-2.2219,-1.9787C24.3487,30.2801,25.2132,30.2801,27.0693,30.1207z" fill-rule="evenodd" fill="#797979"/>
    </g>
  </g>
</svg>
