<?xml version="1.0" encoding="UTF-8"?>
<!DOCTYPE svg PUBLIC "-//W3C//DTD SVG 1.1//EN" "http://www.w3.org/Graphics/SVG/1.1/DTD/svg11.dtd">
<svg version="1.1" id="Layer_1" xmlns="http://www.w3.org/2000/svg" xmlns:xlink="http://www.w3.org/1999/xlink" x="0px" y="0px" width="32px" height="32px" viewBox="0 0 32 32" enable-background="new 0 0 32 32" xml:space="preserve">
  <g id="main">
    <clipPath id="clip_mask">
      <path d="M22.088,32H0V0h32v22.088c-0.157,-0.056,-0.324,-0.088,-0.5,-0.088h-3.5v-3.5c0,-0.827,-0.673,-1.5,-1.5,-1.5h-3c-0.827,0,-1.5,0.673,-1.5,1.5v3.5h-3.5c-0.827,0,-1.5,0.673,-1.5,1.5v3c0,0.827,0.673,1.5,1.5,1.5h3.5v3.5C22,31.676,22.032,31.843,22.088,32zM31.5,28h-3.5v3.5c0,0.176,-0.032,0.343,-0.088,0.5H32v-4.088C31.843,27.968,31.676,28,31.5,28z" fill-rule="evenodd"/>
    </clipPath>
    <g id="icon" clip-path="url(#clip_mask)">
      <g id="transformed_icon" transform="translate(-1 -1)">
        <path d="M26.6,30.5H5.4c-0.6351,0,-0.9,-0.2594,-0.9,-0.9V2.4c0,-0.6407,0.2649,-0.9,0.9,-0.9c0,0,13.6626,0,13.9,0c0.2375,0,0.5495,0.0496,0.8997,0.3998C20.499,2.199,25.6164,7.3164,27.1,8.8c0.2527,0.2527,0.4,0.55,0.4,1c0,0.3125,0,19.8,0,19.8C27.5,30.2406,27.2351,30.5,26.6,30.5z" fill-rule="evenodd" fill="#EBF3FB" stroke="#3E79B4" stroke-width="1" stroke-miterlimit="1"/>
        <path d="M27.2,10h-6.8108c-0.076,0,-0.148,-0.0169,-0.2125,-0.0473C19.6218,9.7956,19,9.2613,19,8.5667V1.8h1v6.7667c0,0.2028,0.3584,0.4218,0.4944,0.4333H27.2V10z" fill="#3E79B4"/>
      </g>
    </g>
    <g id="overlay">
      <path d="M31.5,23h-4.5v-4.5c0,-0.276,-0.224,-0.5,-0.5,-0.5h-3c-0.276,0,-0.5,0.224,-0.5,0.5v4.5h-4.5c-0.276,0,-0.5,0.224,-0.5,0.5v3c0,0.276,0.224,0.5,0.5,0.5h4.5v4.5c0,0.276,0.224,0.5,0.5,0.5h3c0.276,0,0.5,-0.224,0.5,-0.5v-4.5h4.5c0.276,0,0.5,-0.224,0.5,-0.5v-3C32,23.224,31.776,23,31.5,23z" fill-rule="evenodd" fill="#4EA17E"/>
    </g>
  </g>
</svg>
