<?xml version="1.0" encoding="UTF-8"?>
<!DOCTYPE svg PUBLIC "-//W3C//DTD SVG 1.1//EN" "http://www.w3.org/Graphics/SVG/1.1/DTD/svg11.dtd">
<svg version="1.1" id="Layer_1" xmlns="http://www.w3.org/2000/svg" xmlns:xlink="http://www.w3.org/1999/xlink" x="0px" y="0px" width="32px" height="32px" viewBox="0 0 32 32" enable-background="new 0 0 32 32" xml:space="preserve">
  <g id="icon">
    <path d="M28,28h-2v-2h2V28zM24,28h-2v-2h2V28zM20,28h-2v-2h2V28zM16,28h-2v-2h2V28zM12,28h-2v-2h2V28zM8,28H6v-2h2V28zM4,28H2v-2h2V28zM28,24h-2v-2h2V24zM4,24H2v-2h2V24zM28,20h-2v-2h2V20zM4,20H2v-2h2V20zM28,16h-2v-2h2V16zM4,16H2v-2h2V16zM28,12h-2v-2h2V12zM4,12H2v-2h2V12zM28,8h-2V6h2V8zM4,8H2V6h2V8zM28,4h-2V2h2V4zM24,4h-2V2h2V4zM20,4h-2V2h2V4zM16,4h-2V2h2V4zM12,4h-2V2h2V4zM8,4H6V2h2V4zM4,4H2V2h2V4z" fill="#000000"/>
  </g>
</svg>
