<?xml version="1.0" encoding="UTF-8"?>
<!DOCTYPE svg PUBLIC "-//W3C//DTD SVG 1.1//EN" "http://www.w3.org/Graphics/SVG/1.1/DTD/svg11.dtd">
<svg version="1.1" id="Layer_1" xmlns="http://www.w3.org/2000/svg" xmlns:xlink="http://www.w3.org/1999/xlink" x="0px" y="0px" width="24px" height="24px" viewBox="0 0 24 24" enable-background="new 0 0 24 24" xml:space="preserve">
  <g id="icon">
    <path d="M1,16.5v2.3c0,0.66,0.54,1.2,1.2,1.2h19.6c0.66,0,1.2,-0.54,1.2,-1.2v-2.3H1z" fill="#CCD0D9"/>
    <path d="M21.8,2H2.2c-0.66,0,-1.2,0.54,-1.2,1.2v13.3h22V3.2C23,2.54,22.46,2,21.8,2z" fill="#536880"/>
    <rect x="2.5" y="3.5" width="19" height="11.5" fill="#4FC0E8"/>
    <circle cx="12" cy="18" r="1" fill="#656D78" opacity="0.8"/>
    <path d="M15.6,23H8.4c-0.2973,0,-0.4769,-0.3323,-0.3104,-0.5786C8.3549,22.0286,9.3,21.593,9.3,21.1c0,-0.925,-0.3,-1.1,-0.3,-1.1h6c0,0,-0.3,0.075,-0.3,1.1c0,0.5305,0.9451,0.9476,1.2035,1.3231C16.0718,22.6676,15.8968,23,15.6,23z" fill="#8E949C"/>
    <path d="M21.8,2h-3.9444l-6.2963,18H21.8c0.66,0,1.2,-0.54,1.2,-0.7V3.7C23,2.54,22.46,2,21.8,2z" fill="#231F20" opacity="0.1"/>
  </g>
</svg>
