<?xml version="1.0" encoding="UTF-8"?>
<!DOCTYPE svg PUBLIC "-//W3C//DTD SVG 1.1//EN" "http://www.w3.org/Graphics/SVG/1.1/DTD/svg11.dtd">
<svg version="1.1" id="Layer_1" xmlns="http://www.w3.org/2000/svg" xmlns:xlink="http://www.w3.org/1999/xlink" x="0px" y="0px" width="21px" height="21px" viewBox="0 0 21 21" enable-background="new 0 0 21 21" xml:space="preserve">
  <g id="icon">
    <path d="M8.7,9.5H3.3c-0.4418,0,-0.8,-0.3582,-0.8,-0.8V3.3c0,-0.4418,0.3582,-0.8,0.8,-0.8h5.4c0.4418,0,0.8,0.3582,0.8,0.8v5.4C9.5,9.1418,9.1418,9.5,8.7,9.5z" fill="none" stroke="#434a54" stroke-width="1" stroke-linecap="round" stroke-miterlimit="1" stroke-linejoin="round"/>
    <rect x="4.5" y="4.5" width="3" height="3" fill="none" stroke="#434a54" stroke-width="1" stroke-linecap="round" stroke-miterlimit="1" stroke-linejoin="round"/>
    <path d="M17.7,9.5h-5.4c-0.4418,0,-0.8,-0.3582,-0.8,-0.8V3.3c0,-0.4418,0.3582,-0.8,0.8,-0.8h5.4c0.4418,0,0.8,0.3582,0.8,0.8v5.4C18.5,9.1418,18.1418,9.5,17.7,9.5z" fill="none" stroke="#434a54" stroke-width="1" stroke-linecap="round" stroke-miterlimit="1" stroke-linejoin="round"/>
    <path d="M17.7,18.5h-5.4c-0.4418,0,-0.8,-0.3582,-0.8,-0.8v-5.4c0,-0.4418,0.3582,-0.8,0.8,-0.8h5.4c0.4418,0,0.8,0.3582,0.8,0.8v5.4C18.5,18.1418,18.1418,18.5,17.7,18.5z" fill="none" stroke="#434a54" stroke-width="1" stroke-linecap="round" stroke-miterlimit="1" stroke-linejoin="round"/>
    <rect x="13.5" y="13.5" width="3" height="3" fill="none" stroke="#434a54" stroke-width="1" stroke-linecap="round" stroke-miterlimit="1" stroke-linejoin="round"/>
    <path d="M8.7,18.5H3.3c-0.4418,0,-0.8,-0.3582,-0.8,-0.8v-5.4c0,-0.4418,0.3582,-0.8,0.8,-0.8h5.4c0.4418,0,0.8,0.3582,0.8,0.8v5.4C9.5,18.1418,9.1418,18.5,8.7,18.5z" fill="none" stroke="#434a54" stroke-width="1" stroke-linecap="round" stroke-miterlimit="1" stroke-linejoin="round"/>
  </g>
</svg>
