<?xml version="1.0" encoding="UTF-8"?>
<!DOCTYPE svg PUBLIC "-//W3C//DTD SVG 1.1//EN" "http://www.w3.org/Graphics/SVG/1.1/DTD/svg11.dtd">
<svg version="1.1" id="Layer_1" xmlns="http://www.w3.org/2000/svg" xmlns:xlink="http://www.w3.org/1999/xlink" x="0px" y="0px" width="32px" height="32px" viewBox="0 0 32 32" enable-background="new 0 0 32 32" xml:space="preserve">
  <g id="icon">
    <path d="M13.8,1H2.2c-0.66,0,-1.2,0.54,-1.2,1.2v11.6c0,0.66,0.54,1.2,1.2,1.2h11.6c0.66,0,1.2,-0.54,1.2,-1.2V2.2C15,1.54,14.46,1,13.8,1zM13,12.3167c0,0.3774,-0.3059,0.6833,-0.6833,0.6833H3.6833c-0.3774,0,-0.6833,-0.3059,-0.6833,-0.6833V3.6833C3,3.3059,3.3059,3,3.6833,3h8.6333c0.3774,0,0.6833,0.3059,0.6833,0.6833V12.3167z" fill="#3E79B4"/>
    <rect x="3.5" y="3.5" width="9" height="9" fill="#C2D3E6" stroke="#FFFFFF" stroke-width="1" stroke-miterlimit="1" stroke-linejoin="round"/>
    <path d="M29.3667,1H18.6333C17.735,1,17,1.735,17,2.6333v10.7333c0,0.8983,0.735,1.6333,1.6333,1.6333h10.7333c0.8983,0,1.6333,-0.735,1.6333,-1.6333V2.6333C31,1.735,30.265,1,29.3667,1zM29.5667,14H18.4333c-0.2393,0,-0.4333,-0.194,-0.4333,-0.4333V2.4333c0,-0.2393,0.194,-0.4333,0.4333,-0.4333h11.1333c0.2393,0,0.4333,0.194,0.4333,0.4333v11.1333C30,13.806,29.806,14,29.5667,14z" fill="#B4B4B5"/>
    <path d="M13.3667,17H2.6333C1.735,17,1,17.735,1,18.6333v10.7333C1,30.265,1.735,31,2.6333,31h10.7333c0.8983,0,1.6333,-0.735,1.6333,-1.6333V18.6333C15,17.735,14.265,17,13.3667,17zM13.5667,30H2.4333C2.194,30,2,29.806,2,29.5667V18.4333c0,-0.2393,0.194,-0.4333,0.4333,-0.4333h11.1333c0.2393,0,0.4333,0.194,0.4333,0.4333v11.1333C14,29.806,13.806,30,13.5667,30z" fill="#B4B4B5"/>
    <path d="M29.8,17H18.2c-0.66,0,-1.2,0.54,-1.2,1.2v11.6c0,0.66,0.54,1.2,1.2,1.2h11.6c0.66,0,1.2,-0.54,1.2,-1.2V18.2C31,17.54,30.46,17,29.8,17zM29,28.3167c0,0.3774,-0.3059,0.6833,-0.6833,0.6833h-8.6333c-0.3774,0,-0.6833,-0.3059,-0.6833,-0.6833v-8.6333c0,-0.3774,0.3059,-0.6833,0.6833,-0.6833h8.6333c0.3774,0,0.6833,0.3059,0.6833,0.6833V28.3167z" fill="#3E79B4"/>
    <rect x="19.5" y="19.5" width="9" height="9" fill="#C2D3E6" stroke="#FFFFFF" stroke-width="1" stroke-miterlimit="1" stroke-linejoin="round"/>
    <path d="M29.4167,14H18.5833c-0.3222,0,-0.5833,-0.2612,-0.5833,-0.5833V2.5833c0,-0.3222,0.2612,-0.5833,0.5833,-0.5833h10.8333c0.3222,0,0.5833,0.2612,0.5833,0.5833v10.8333C30,13.7388,29.7388,14,29.4167,14z" fill="#FFFFFF"/>
    <path d="M13.4167,30H2.5833c-0.3222,0,-0.5833,-0.2612,-0.5833,-0.5833V18.5833c0,-0.3222,0.2612,-0.5833,0.5833,-0.5833h10.8333c0.3222,0,0.5833,0.2612,0.5833,0.5833v10.8333C14,29.7388,13.7388,30,13.4167,30z" fill="#FFFFFF"/>
  </g>
</svg>
