<?xml version="1.0" encoding="UTF-8"?>
<!DOCTYPE svg PUBLIC "-//W3C//DTD SVG 1.1//EN" "http://www.w3.org/Graphics/SVG/1.1/DTD/svg11.dtd">
<svg version="1.1" id="Layer_1" xmlns="http://www.w3.org/2000/svg" xmlns:xlink="http://www.w3.org/1999/xlink" x="0px" y="0px" width="16px" height="16px" viewBox="0 0 16 16" enable-background="new 0 0 16 16" xml:space="preserve">
  <g id="icon">
    <rect x="8" y="1.9" width="5.9" height="12.2" fill-rule="evenodd" fill="#FFFFFF"/>
    <path d="M6.6533,15.8937l-5.4205,-1.5892c-0.1361,-0.0289,-0.2328,-0.1436,-0.2328,-0.2761V2.033c0,-0.1313,0.0951,-0.2454,0.2297,-0.2754L6.6502,0.1069C6.8371,0.0653,7,0.217,7,0.3993v15.2013C7,15.7817,6.8394,15.9332,6.6533,15.8937z" fill="#797979"/>
    <g>
      <polygon points="13,10.5 13,14 8,14 8,15 14,15 14,10.5" fill="#727373" stroke-linejoin="miter"/>
      <polygon points="13,5.5 14,5.5 14,1 8,1 8,2 13,2" fill="#727373" stroke-linejoin="miter"/>
    </g>
    <path d="M10.4,5.0509c0.0234,-0.0221,0.066,-0.0492,0.0982,-0.0491l1.8138,0.0004c0.0509,0.0001,0.0763,0.0617,0.0404,0.0977L10.5,7h5.4c0.0194,-0.0007,0.1,0.0857,0.1,0.0982v1.3v0.3024v0.2c0,0.0694,-0.0306,0.0976,-0.1,0.0976h-5.4l1.8466,1.9042c0.0359,0.0361,0.0103,0.0976,-0.0406,0.0976h-1.8189c-0.0325,0,-0.0637,-0.0126,-0.0871,-0.0351c0,0,-2.573,-2.5276,-2.9523,-2.8909c-0.0396,-0.0379,-0.0393,-0.1035,0.0006,-0.141C7.8289,7.5751,10.4,5.0509,10.4,5.0509z" fill-rule="evenodd" fill="#CD4C32"/>
  </g>
</svg>
