<?xml version="1.0" encoding="UTF-8"?>
<!DOCTYPE svg PUBLIC "-//W3C//DTD SVG 1.1//EN" "http://www.w3.org/Graphics/SVG/1.1/DTD/svg11.dtd">
<svg version="1.1" id="Layer_1" xmlns="http://www.w3.org/2000/svg" xmlns:xlink="http://www.w3.org/1999/xlink" x="0px" y="0px" width="16px" height="16px" viewBox="0 0 16 16" enable-background="new 0 0 16 16" xml:space="preserve">
  <g id="main">
    <clipPath id="clip_mask">
      <path d="M9.2409,15.214c-0.1502,-0.0146,-0.2992,-0.0302,-0.4444,-0.0472c-1.7676,-0.2071,-2.4524,-0.4945,-2.714,-1.1392c-0.1687,-0.4157,-0.0768,-0.8753,0.2386,-1.2152c0.0971,-0.1155,0.1988,-0.2293,0.306,-0.3494c0.5545,-0.6209,1.1279,-1.263,1.1279,-2.1792c0,-1.2839,0.7695,-2.4278,1.9708,-3.0099c0.2555,-0.74,0.9686,-1.274,1.8061,-1.274c0.8641,0,1.5958,0.5684,1.8291,1.345c1.1191,0.604,1.8344,1.719,1.8344,2.9389c0,0.4222,0.3555,1.0924,0.8047,1.6997V0H0v16h9.5588C9.4055,15.7667,9.2955,15.5024,9.2409,15.214z" fill-rule="evenodd"/>
    </clipPath>
    <g id="icon" clip-path="url(#clip_mask)">
      <path d="M11.7,14.5H3.3c-0.442,0,-0.8,-0.358,-0.8,-0.8V3.3c0,-0.442,0.358,-0.8,0.8,-0.8h8.4c0.442,0,0.8,0.358,0.8,0.8v10.4C12.5,14.142,12.142,14.5,11.7,14.5z" fill="#FFFFFF" stroke="#797979" stroke-width="1" stroke-linecap="round" stroke-miterlimit="1" stroke-linejoin="round"/>
      <rect x="4" y="12" width="7" height="1" fill="#CD4C32"/>
      <path d="M10,2.3H5V1c0,-0.552,0.448,-1,1,-1h3c0.552,0,1,0.448,1,1V2.3z" fill="#797979"/>
    </g>
    <g id="overlay">
      <path d="M15.9413,13.453c-0.6495,-0.655,-1.746,-2.0745,-1.746,-3.1691c0,-1.0345,-0.7369,-1.9163,-1.7712,-2.2573c0.0089,-0.0491,0.0144,-0.0994,0.0144,-0.1509c0,-0.4836,-0.406,-0.8757,-0.9067,-0.8757s-0.9067,0.3921,-0.9067,0.8757c0,0.0401,0.0038,0.0792,0.0092,0.1178C9.5437,8.3072,8.755,9.2138,8.755,10.2839c0,1.5325,-1.0819,2.4666,-1.6889,3.1966c-0.6126,0.5952,3.2037,0.8589,4.4374,0.8589C12.7372,14.3393,16.5908,14.108,15.9413,13.453z" fill-rule="evenodd" fill="#EAB765"/>
      <path d="M12.9432,14.7762c0,0.744,-0.6487,1.2289,-1.3999,1.2289c-0.7512,0,-1.38,-0.4849,-1.38,-1.2289C11.2535,14.8752,11.7904,14.8752,12.9432,14.7762z" fill-rule="evenodd" fill="#797979"/>
    </g>
  </g>
</svg>
