<?xml version="1.0" encoding="UTF-8"?>
<!DOCTYPE svg PUBLIC "-//W3C//DTD SVG 1.1//EN" "http://www.w3.org/Graphics/SVG/1.1/DTD/svg11.dtd">
<svg version="1.1" id="Layer_1" xmlns="http://www.w3.org/2000/svg" xmlns:xlink="http://www.w3.org/1999/xlink" x="0px" y="0px" width="16px" height="16px" viewBox="0 0 16 16" enable-background="new 0 0 16 16" xml:space="preserve">
  <g id="main">
    <clipPath id="clip_mask">
      <path d="M9.036,16H0V0h16v9.036c-0.096,-0.023,-0.197,-0.036,-0.3,-0.036h-1.7V7.3c0,-0.717,-0.583,-1.3,-1.3,-1.3h-2.4c-0.717,0,-1.3,0.583,-1.3,1.3v1.7H7.3c-0.717,0,-1.3,0.583,-1.3,1.3v2.4c0,0.717,0.583,1.3,1.3,1.3h1.7v1.7C9,15.803,9.013,15.904,9.036,16zM15.7,14h-1.7v1.7c0,0.103,-0.013,0.204,-0.036,0.3H16v-2.036C15.904,13.987,15.803,14,15.7,14z"/>
    </clipPath>
    <g id="icon" clip-path="url(#clip_mask)">
      <path d="M12.9,14.5H2.1c-0.3314,0,-0.6,-0.2686,-0.6,-0.6V1.1c0,-0.3314,0.2686,-0.6,0.6,-0.6c0,0,6.55,0,7.0167,0s0.7328,0.1495,0.9248,0.3414s2.717,2.717,3.0336,3.0336c0.3166,0.3166,0.425,0.575,0.425,1.0416S13.5,13.9,13.5,13.9C13.5,14.2314,13.2314,14.5,12.9,14.5z" fill-rule="evenodd" fill="#EBF3FB" stroke="#5281B0" stroke-width="1" stroke-miterlimit="1"/>
      <path d="M13.2,5H9.9614c-0.0574,0,-0.1125,-0.0097,-0.1639,-0.0275C9.399,4.8674,9,4.473,9,4V1h1v2.9646c0.0116,0.0122,0.0296,0.0263,0.0454,0.0354H13.2V5z" fill="#5281B0"/>
    </g>
    <g id="overlay">
      <path d="M15.7,10h-2.7V7.3c0,-0.166,-0.134,-0.3,-0.3,-0.3h-2.4c-0.166,0,-0.3,0.134,-0.3,0.3v2.7H7.3c-0.166,0,-0.3,0.134,-0.3,0.3v2.4c0,0.166,0.134,0.3,0.3,0.3h2.7v2.7c0,0.166,0.134,0.3,0.3,0.3h2.4c0.166,0,0.3,-0.134,0.3,-0.3v-2.7h2.7c0.166,0,0.3,-0.134,0.3,-0.3v-2.4C16,10.134,15.866,10,15.7,10z" fill="#4EA17E"/>
    </g>
  </g>
</svg>
