<?xml version="1.0" encoding="UTF-8"?>
<!DOCTYPE svg PUBLIC "-//W3C//DTD SVG 1.1//EN" "http://www.w3.org/Graphics/SVG/1.1/DTD/svg11.dtd">
<svg version="1.1" id="Layer_1" xmlns="http://www.w3.org/2000/svg" xmlns:xlink="http://www.w3.org/1999/xlink" x="0px" y="0px" width="16px" height="16px" viewBox="0 0 16 16" enable-background="new 0 0 16 16" xml:space="preserve">
  <g id="icon">
    <path d="M8,0C3.582,0,0,3.582,0,8c0,4.418,3.582,8,8,8s8,-3.582,8,-8C16,3.582,12.418,0,8,0zM7.257,2.266c0,-0.139,0.113,-0.252,0.252,-0.252h0.982c0.139,0,0.252,0.113,0.252,0.252V8.13c0,0.139,-0.113,0.252,-0.252,0.252h-0.982c-0.139,0,-0.252,-0.113,-0.252,-0.252V2.266zM7.926,13.157c-2.85,-0.04,-5.154,-2.403,-5.125,-5.253c0.022,-2.192,1.401,-4.059,3.337,-4.802c0.13,-0.05,0.271,0.044,0.271,0.184v1.109c0,0.074,-0.041,0.143,-0.107,0.177c-1.239,0.623,-2.09,1.905,-2.09,3.386c0,2.123,1.746,3.838,3.88,3.787c2.021,-0.048,3.664,-1.704,3.696,-3.725c0.024,-1.507,-0.832,-2.816,-2.087,-3.448c-0.066,-0.033,-0.109,-0.1,-0.109,-0.174V3.285c0,-0.14,0.14,-0.234,0.271,-0.184C11.814,3.85,13.2,5.742,13.2,7.957C13.2,10.854,10.832,13.197,7.926,13.157z" fill="#CD4C32"/>
    <path d="M9.862,3.101C11.814,3.85,13.2,5.742,13.2,7.957c0,2.897,-2.368,5.24,-5.274,5.199c-2.85,-0.04,-5.154,-2.403,-5.125,-5.253c0.022,-2.192,1.401,-4.059,3.337,-4.802c0.13,-0.05,0.271,0.044,0.271,0.184v1.109c0,0.074,-0.041,0.143,-0.107,0.177c-1.239,0.623,-2.09,1.905,-2.09,3.386c0,2.123,1.746,3.838,3.88,3.787c2.021,-0.048,3.664,-1.704,3.696,-3.725c0.024,-1.507,-0.832,-2.816,-2.087,-3.448c-0.066,-0.033,-0.109,-0.1,-0.109,-0.174V3.285C9.592,3.145,9.732,3.051,9.862,3.101zM7.509,2.014c-0.139,0,-0.252,0.113,-0.252,0.252V8.13c0,0.139,0.113,0.252,0.252,0.252h0.982c0.139,0,0.252,-0.113,0.252,-0.252V2.266c0,-0.139,-0.113,-0.252,-0.252,-0.252H7.509z" fill="#FFFFFF"/>
  </g>
</svg>
