<?xml version="1.0" encoding="UTF-8"?>
<!DOCTYPE svg PUBLIC "-//W3C//DTD SVG 1.1//EN" "http://www.w3.org/Graphics/SVG/1.1/DTD/svg11.dtd">
<svg version="1.1" id="Layer_1" xmlns="http://www.w3.org/2000/svg" xmlns:xlink="http://www.w3.org/1999/xlink" x="0px" y="0px" width="16px" height="16px" viewBox="0 0 16 16" enable-background="new 0 0 16 16" xml:space="preserve">
  <g id="icon">
    <path d="M10,15V1h4c0.5523,0,1,0.4477,1,1v3.7c0,0.4243,-0.1686,0.8313,-0.4686,1.1314l-1.0627,1.0628c-0.3001,0.3001,-0.4686,0.707,-0.4686,1.1314V14.1c0,0.4971,-0.4029,0.9,-0.9,0.9H10z" fill-rule="evenodd" fill="#96762C"/>
    <path d="M1,14V2c0,-0.5523,0.4477,-1,1,-1L8,0c0.5523,0,1,0.4477,1,1v14c0,0.5523,-0.4477,1,-1,1l-6,-1C1.4477,15,1,14.5523,1,14z" fill-rule="evenodd" fill="#E9B664"/>
  </g>
</svg>
