<?xml version="1.0" encoding="UTF-8"?>
<!DOCTYPE svg PUBLIC "-//W3C//DTD SVG 1.1//EN" "http://www.w3.org/Graphics/SVG/1.1/DTD/svg11.dtd">
<svg version="1.1" id="Layer_1" xmlns="http://www.w3.org/2000/svg" xmlns:xlink="http://www.w3.org/1999/xlink" x="0px" y="0px" width="16px" height="16px" viewBox="0 0 16 16" enable-background="new 0 0 16 16" xml:space="preserve">
  <g id="icon">
    <path d="M12.9917,1H3.0083C1.8992,1,1,1.8992,1,3.0083v9.9833C1,14.1008,1.8992,15,3.0083,15h9.9833c1.1092,0,2.0083,-0.8992,2.0083,-2.0083V3.0083C15,1.8992,14.1008,1,12.9917,1zM11.8323,10.4724c0.1367,0.1367,0.1367,0.3583,0,0.495l-0.865,0.865c-0.1367,0.1367,-0.3583,0.1367,-0.495,0L8,9.3599l-2.4724,2.4724c-0.1367,0.1367,-0.3583,0.1367,-0.495,0l-0.865,-0.865c-0.1367,-0.1367,-0.1367,-0.3583,0,-0.495L6.6401,8L4.1677,5.5276c-0.1367,-0.1367,-0.1367,-0.3583,0,-0.495l0.865,-0.865c0.1367,-0.1367,0.3583,-0.1367,0.495,0L8,6.6401l2.4724,-2.4724c0.1367,-0.1367,0.3583,-0.1367,0.495,0l0.865,0.865c0.1367,0.1367,0.1367,0.3583,0,0.495L9.3599,8L11.8323,10.4724z" fill-rule="evenodd" fill="#CD4C32"/>
    <path d="M10.4724,4.1677L8,6.6401L5.5276,4.1677c-0.1367,-0.1367,-0.3583,-0.1367,-0.495,0l-0.865,0.865c-0.1367,0.1367,-0.1367,0.3583,0,0.495L6.6401,8l-2.4724,2.4724c-0.1367,0.1367,-0.1367,0.3583,0,0.495l0.865,0.865c0.1367,0.1367,0.3583,0.1367,0.495,0L8,9.3599l2.4724,2.4724c0.1367,0.1367,0.3583,0.1367,0.495,0l0.865,-0.865c0.1367,-0.1367,0.1367,-0.3583,0,-0.495L9.3599,8l2.4724,-2.4724c0.1367,-0.1367,0.1367,-0.3583,0,-0.495l-0.865,-0.865C10.8307,4.031,10.6091,4.031,10.4724,4.1677z" fill-rule="evenodd" fill="#FFFFFF"/>
  </g>
</svg>
