<?xml version="1.0" encoding="UTF-8"?>
<!DOCTYPE svg PUBLIC "-//W3C//DTD SVG 1.1//EN" "http://www.w3.org/Graphics/SVG/1.1/DTD/svg11.dtd">
<svg version="1.1" id="Layer_1" xmlns="http://www.w3.org/2000/svg" xmlns:xlink="http://www.w3.org/1999/xlink" x="0px" y="0px" width="32px" height="32px" viewBox="0 0 32 32" enable-background="new 0 0 32 32" xml:space="preserve">
  <g id="icon">
    <path d="M23.2302,5.2696l-7.2125,7.2125L8.8052,5.2696c-0.3124,-0.3124,-0.819,-0.3124,-1.1314,0L5.2696,7.6738c-0.3124,0.3124,-0.3124,0.819,0,1.1314l7.2125,7.2125l-7.2125,7.2125c-0.3124,0.3124,-0.3124,0.819,0,1.1314l2.4042,2.4042c0.3124,0.3124,0.819,0.3124,1.1314,0l7.2125,-7.2125l7.2125,7.2125c0.3124,0.3124,0.819,0.3124,1.1314,0l2.4042,-2.4042c0.3124,-0.3124,0.3124,-0.819,0,-1.1314l-7.2125,-7.2125l7.2125,-7.2125c0.3124,-0.3124,0.3124,-0.819,0,-1.1314l-2.4042,-2.4042C24.0491,4.9572,23.5426,4.9572,23.2302,5.2696z" fill="#CD4C32"/>
  </g>
</svg>
